<?xml version="1.0" encoding="UTF-8"?>
<svg id="Layer_1" data-name="Layer 1" xmlns="http://www.w3.org/2000/svg" width="150" height="100" viewBox="0 0 150 100">
  <defs>
    <style>
      .cls-1 {
        fill: #1e1e1e;
      }
    </style>
  </defs>
  <path class="cls-1" d="M32.55,22.59c-.25-.1-.55-.14-.8-.23,1.6-.82,2.92-1.85,3.83-3.19,1.04-1.52,1.55-3.28,1.55-5.28,0-3-1.26-5.44-3.78-7.33-2.52-1.88-6.35-2.83-11.49-2.83H2.09V42.61H22.97c5.26,0,9.25-.94,11.97-2.83,2.72-1.89,4.08-4.5,4.08-7.83,0-2.22-.56-4.13-1.69-5.72-1.13-1.59-2.72-2.8-4.77-3.64Zm-12.08-10.91c1.85,0,3.24,.3,4.16,.92,.92,.61,1.39,1.56,1.39,2.86,0,1.22-.46,2.15-1.39,2.78-.93,.63-2.31,.94-4.16,.94h-7.55v-7.5h7.55Zm6,22.02c-.96,.65-2.41,.97-4.33,.97H12.92v-7.89h9.22c1.93,0,3.37,.33,4.33,.97,.96,.65,1.44,1.64,1.44,2.97s-.48,2.32-1.44,2.97Z"/>
  <path class="cls-1" d="M68.14,13.96c-2.57-1.33-5.51-2-8.8-2s-6.22,.67-8.77,2c-2.56,1.33-4.56,3.17-6.03,5.52-1.46,2.35-2.19,5.05-2.19,8.08s.73,5.68,2.19,8.03,3.47,4.19,6.03,5.52c2.55,1.33,5.48,2,8.77,2s6.23-.67,8.8-2c2.57-1.33,4.59-3.17,6.05-5.52,1.46-2.35,2.19-5.03,2.19-8.03s-.73-5.73-2.19-8.08c-1.46-2.35-3.48-4.19-6.05-5.52Zm-3.33,17.46c-.58,1.09-1.33,1.92-2.28,2.47s-2.01,.83-3.19,.83-2.25-.28-3.19-.83c-.94-.56-1.7-1.38-2.28-2.47-.57-1.09-.86-2.4-.86-3.91s.29-2.85,.86-3.89,1.33-1.83,2.28-2.39c.94-.56,2.01-.83,3.19-.83s2.25,.28,3.19,.83,1.7,1.36,2.28,2.39c.57,1.03,.86,2.33,.86,3.89s-.29,2.82-.86,3.91Z"/>
  <polygon class="cls-1" points="115.04 12.46 102.54 12.46 91.77 22.94 91.77 1.41 81.22 1.41 81.22 42.61 91.77 42.61 91.77 35.31 94.95 32.07 103.32 42.61 116.09 42.61 102.54 25.42 115.04 12.46"/>
  <path class="cls-1" d="M147.91,54.33c0-1.96-.53-3.53-1.58-4.69-1.06-1.17-2.38-1.75-3.97-1.75s-2.92,.58-4,1.75c-1.07,1.17-1.61,2.73-1.61,4.69s.56,3.52,1.67,4.7c1.11,1.16,2.5,1.74,4.16,1.74,1.55,0,2.83-.59,3.83-1.78,1-1.18,1.5-2.74,1.5-4.66Z"/>
  <rect class="cls-1" x="103.32" y="49.05" width="30.15" height="10.55"/>
  <path class="cls-1" d="M2.09,93.31h0c0-2.91,2.36-5.27,5.27-5.27H91.47v10.55H7.36c-2.91,0-5.27-2.36-5.27-5.27Z"/>
  <path class="cls-1" d="M2.09,73.82h0c0-2.91,2.36-5.27,5.27-5.27h60.17v10.55H7.36c-2.91,0-5.27-2.36-5.27-5.27Z"/>
  <path class="cls-1" d="M2.09,54.33h0c0-2.91,2.36-5.27,5.27-5.27H42.35v10.55H7.36c-2.91,0-5.27-2.36-5.27-5.27Z"/>
  <path class="cls-1" d="M126.45,96.4c2.35-1.46,4.19-3.48,5.52-6.05,1.33-2.58,2-5.51,2-8.8s-.67-6.22-2-8.78c-1.33-2.55-3.17-4.56-5.52-6.02-2.35-1.46-5.05-2.19-8.08-2.19s-5.68,.73-8.03,2.19-4.19,3.47-5.52,6.02c-1.33,2.56-2,5.48-2,8.78s.67,6.23,2,8.8c1.33,2.57,3.17,4.59,5.52,6.05,2.35,1.46,5.03,2.19,8.03,2.19s5.73-.73,8.08-2.19Zm-11.94-9.39c-1.09-.57-1.92-1.33-2.47-2.28-.56-.94-.83-2.01-.83-3.19s.28-2.25,.83-3.2,1.38-1.7,2.47-2.27c1.09-.58,2.4-.86,3.91-.86s2.85,.28,3.89,.86c1.03,.57,1.83,1.33,2.39,2.27s.83,2.01,.83,3.2-.28,2.25-.83,3.19c-.56,.94-1.36,1.7-2.39,2.28s-2.33,.86-3.89,.86-2.82-.29-3.91-.86Z"/>
</svg>